<svg height="512pt" viewBox="-43 0 512 512" width="512pt" xmlns="http://www.w3.org/2000/svg"><path d="m362.667969 0h-298.667969c-35.285156 0-64 28.714844-64 64v384c0 35.285156 28.714844 64 64 64h298.667969c35.285156 0 64-28.714844 64-64v-384c0-35.285156-28.714844-64-64-64zm-298.667969 42.667969h298.667969c11.773437 0 21.332031 9.578125 21.332031 21.332031v298.667969h-64v-37.335938c0-40.167969-44.863281-69.332031-106.667969-69.332031-61.800781 0-106.664062 29.164062-106.664062 69.332031v37.335938h-64v-298.667969c0-11.753906 9.554687-21.332031 21.332031-21.332031zm0 0"/><path d="m213.332031 234.667969c35.285157 0 64-28.714844 64-64 0-35.285157-28.714843-64-64-64-35.285156 0-64 28.714843-64 64 0 35.285156 28.714844 64 64 64zm0 0"/></svg>